<?xml version="1.0"?>
<svg width="16" height="16" xmlns="http://www.w3.org/2000/svg" xmlns:svg="http://www.w3.org/2000/svg" class="bi bi-stars">

 <g class="layer">
  <title>Layer 1</title>
  <path d="m7.66,6.25c0.11,-0.33 0.57,-0.33 0.68,0l0.65,1.93a2.89,2.89 0 0 0 1.83,1.83l1.93,0.65c0.33,0.11 0.33,0.57 0,0.68l-1.93,0.65a2.89,2.89 0 0 0 -1.83,1.83l-0.65,1.93a0.36,0.36 0 0 1 -0.68,0l-0.65,-1.93a2.89,2.89 0 0 0 -1.83,-1.83l-1.93,-0.65a0.36,0.36 0 0 1 0,-0.68l1.93,-0.65a2.89,2.89 0 0 0 1.83,-1.83l0.65,-1.93zm-3.87,-5.1a0.22,0.22 0 0 1 0.42,0l0.38,1.16c0.18,0.52 0.58,0.92 1.1,1.1l1.16,0.38a0.22,0.22 0 0 1 0,0.42l-1.16,0.38a1.73,1.73 0 0 0 -1.1,1.1l-0.38,1.16a0.22,0.22 0 0 1 -0.42,0l-0.38,-1.16a1.73,1.73 0 0 0 -1.1,-1.1l-1.16,-0.38a0.22,0.22 0 0 1 0,-0.42l1.16,-0.38a1.73,1.73 0 0 0 1.1,-1.1l0.38,-1.16zm7.07,-1.05a0.15,0.15 0 0 1 0.28,0l0.25,0.77c0.12,0.35 0.39,0.62 0.74,0.73l0.77,0.26a0.15,0.15 0 0 1 0,0.28l-0.77,0.26a1.16,1.16 0 0 0 -0.74,0.73l-0.25,0.77a0.15,0.15 0 0 1 -0.28,0l-0.25,-0.77a1.16,1.16 0 0 0 -0.74,-0.74l-0.77,-0.25a0.15,0.15 0 0 1 0,-0.28l0.77,-0.26c0.35,-0.11 0.62,-0.38 0.74,-0.73l0.25,-0.77z" fill="#ffffff" id="svg_1"/>
 </g>
</svg>